# xmcd
#
# Track frame offsets:
# 150
# 23412
# 43857
#
# Disc length: 822 seconds
#
#
# Revision: 0
# Processed by: cddbd v1.5.2PL0 Copyright (c) Steve Scherf et al.
# Submitted via: FreeRIP 2.96 
#
DISCID=19033403
DTITLE=deftones - be quiet and drive (far away)
DYEAR=1997
DGENRE=Metal
TTITLE0=be quiet and drive (far away)
TTITLE1=be quiet and drive (far away) remix
TTITLE2=birthmark (live)
EXTD=
EXTT0=
EXTT1=
EXTT2=
PLAYORDER=
